/vscmnt/brussel_pixiu_data/_data_brussel/112/vsc11236/PredSimResults/SUBJ11mtu3D/weighted-trackIG/worker_03.mot
version=1
nRows=9
nColumns=50
inDegrees=yes
endheader
                time	         pelvis_tilt	         pelvis_list	     pelvis_rotation	           pelvis_tx	           pelvis_ty	           pelvis_tz	       hip_flexion_r	     hip_adduction_r	      hip_rotation_r	        knee_angle_r	       ankle_angle_r	         mtp_angle_r	       hip_flexion_l	     hip_adduction_l	      hip_rotation_l	        knee_angle_l	       ankle_angle_l	         mtp_angle_l	    lumbar_extension	      lumbar_bending	     lumbar_rotation	 ercspn_r/activation	 intobl_r/activation	 extobl_r/activation	    abd_r/activation	    add_r/activation	hamstrings_r/activation	bifemsh_r/activation	glut_max_r/activation	iliopsoas_r/activation	rect_fem_r/activation	  vasti_r/activation	gastroc_r/activation	 soleus_r/activation	tib_ant_r/activation	 ercspn_l/activation	 intobl_l/activation	 extobl_l/activation	    abd_l/activation	    add_l/activation	hamstrings_l/activation	bifemsh_l/activation	glut_max_l/activation	iliopsoas_l/activation	rect_fem_l/activation	  vasti_l/activation	gastroc_l/activation	 soleus_l/activation	tib_ant_l/activation	
          2.09491717	         -6.14351420	          4.97510440	         -8.19267612	          2.19966303	          0.93994099	          0.01744480	        -12.21515333	         -5.45686920	          4.58240781	         -6.72491814	         12.66814911	         26.41459590	         31.46875314	          1.29165922	         -4.62233157	         -3.94368530	          5.67108575	          0.20934857	         -4.06389752	         -3.02756147	          2.16372786	          0.02821950	          0.00999999	          0.00999999	          0.05333990	          0.02271939	          0.02710952	          0.13904083	          0.05333989	          0.44715055	          0.01000001	          0.01000000	          0.36165286	          0.26381720	          0.01232767	          0.09451213	          0.15186567	          0.02847126	          0.01232766	          0.09220025	          0.05762128	          0.21570082	          0.01201061	          0.09993020	          0.01098044	          0.00999999	          0.01896676	          0.00999999	          0.28370745	
          2.10888329	         -6.27288791	          4.81730213	         -8.24715673	          2.21750312	          0.93769132	          0.01677707	        -12.51933935	         -5.37135514	          4.21229955	         -7.93338365	         12.16642096	         28.38832343	         31.63951593	          1.30478990	         -4.65332099	         -5.60818352	          5.23028840	          0.21872396	         -3.77413832	         -3.30444534	          2.35975844	          0.06586082	          0.00999999	          0.01000000	          0.04326838	          0.04642271	          0.02199077	          0.11278746	          0.04326838	          0.45571167	          0.01000001	          0.01000000	          0.33264757	          0.24984597	          0.00999999	          0.07666656	          0.12319086	          0.02309538	          0.00999999	          0.13671709	          0.05284554	          0.17497269	          0.05850240	          0.08106161	          0.01000000	          0.00999999	          0.02309542	          0.01519717	          0.29548533	
          2.12284940	         -6.37774410	          4.65230361	         -8.24923407	          2.23578765	          0.93575674	          0.01602557	        -12.67308542	         -5.26790838	          3.81686971	         -9.49232319	         11.53246106	         30.45958500	         31.60176705	          1.30667723	         -4.65768204	         -7.23271744	          4.78602057	          0.18690645	         -3.46668942	         -3.58887869	          2.53429773	          0.07980848	          0.00999999	          0.00999999	          0.03509854	          0.03765811	          0.02224197	          0.09149119	          0.03509854	          0.44602099	          0.01000002	          0.01873462	          0.29783723	          0.23142939	          0.00999999	          0.07036829	          0.09993024	          0.01873456	          0.05827529	          0.12890593	          0.05777969	          0.14193475	          0.08251564	          0.06575574	          0.00999999	          0.00999999	          0.01873459	          0.01232768	          0.33755108	
          2.13681551	         -6.46013595	          4.48060993	         -8.20117087	          2.25421757	          0.93440516	          0.01516702	        -12.58387684	         -5.14573840	          3.40652181	        -11.50746877	         10.70819226	         32.62094024	         31.38589820	          1.31458222	         -4.68460631	         -8.56966257	          4.18292258	          0.15833879	         -3.17074281	         -3.87513857	          2.68190680	          0.10990973	          0.00999999	          0.00999999	          0.02847131	          0.04792302	          0.02193566	          0.07421603	          0.02847131	          0.43093372	          0.01000012	          0.01519719	          0.24160027	          0.18825486	          0.00999999	          0.08291298	          0.08106164	          0.01519715	          0.11318429	          0.15935334	          0.05319030	          0.11513495	          0.11252105	          0.05333989	          0.00999999	          0.00999999	          0.01519717	          0.00999999	          0.36928058	
          2.15078163	         -6.51837247	          4.30628123	         -8.10684257	          2.27254388	          0.93379269	          0.01421869	        -12.16650710	         -5.00564194	          2.97703133	        -14.09742371	          9.69271661	         34.77453401	         31.08450827	          1.33322929	         -4.74437678	         -9.81247694	          3.67962499	          0.12022662	         -2.90596850	         -4.16858933	          2.79724074	          0.13769197	          0.00999999	          0.00999999	          0.02309542	          0.06711999	          0.02205609	          0.06020273	          0.02309542	          0.39712104	          0.01000000	          0.01232770	          0.19598186	          0.15270900	          0.00999999	          0.08117708	          0.06575576	          0.01232766	          0.14197950	          0.17869169	          0.04765403	          0.09339543	          0.12842937	          0.04326837	          0.01000000	          0.02861170	          0.01232768	          0.01000001	          0.39376510	
          2.16474774	         -6.55085585	          4.12939409	         -7.96885701	          2.29061778	          0.93392974	          0.01320438	        -11.38306229	         -4.84977392	          2.51699265	        -17.30145551	          8.47178600	         36.77833881	         30.71888620	          1.35896872	         -4.82737250	        -10.99806241	          3.34391507	          0.09357702	         -2.68129098	         -4.46914389	          2.87692739	          0.14203484	          0.00999999	          0.00999999	          0.01873460	          0.08395972	          0.03037499	          0.04883539	          0.01873460	          0.34540543	          0.00999999	          0.01000001	          0.15897701	          0.12387483	          0.00999999	          0.08201898	          0.05333991	          0.00999999	          0.14872247	          0.15551427	          0.05118522	          0.07576072	          0.12130157	          0.03509854	          0.00999999	          0.08122052	          0.01000000	          0.01000000	          0.40356997	
          2.17871386	         -6.55884405	          3.94003059	         -7.79122368	          2.30834946	          0.93477778	          0.01216271	        -10.24609920	         -4.67635936	          2.01868707	        -21.06451220	          7.06081248	         38.33692105	         30.25158081	          1.38493509	         -4.89807967	        -12.03492454	          3.12078159	          0.07018369	         -2.50166086	         -4.76776514	          2.92017065	          0.15099655	          0.00999999	          0.01000000	          0.01519717	          0.09788485	          0.02463966	          0.05059159	          0.01519717	          0.28476956	          0.00999999	          0.00999999	          0.12895933	          0.10048507	          0.00999999	          0.06853323	          0.04326839	          0.00999999	          0.14585961	          0.12615042	          0.04892288	          0.06145575	          0.11586327	          0.02847131	          0.00999999	          0.14313159	          0.01000000	          0.01000000	          0.40487407	
          2.19267997	         -6.54502717	          3.72834598	         -7.57617614	          2.32568131	          0.93634158	          0.01112032	         -8.79522436	         -4.48927267	          1.47341947	        -25.28990633	          5.55704552	         38.96871617	         29.63184484	          1.40964000	         -4.91430479	        -12.82864393	          3.02295458	          0.05142152	         -2.37048913	         -5.05278402	          2.92720398	          0.15826147	          0.00999999	          0.01000000	          0.01232768	          0.10553428	          0.01998725	          0.06680800	          0.01232768	          0.23100002	          0.00999999	          0.00999999	          0.10460952	          0.08151170	          0.00999999	          0.05559305	          0.03509855	          0.00999999	          0.13670217	          0.10233098	          0.04600805	          0.04985182	          0.10838729	          0.02309542	          0.00999999	          0.18359750	          0.01000002	          0.01000001	          0.39701640	
          2.20664609	         -6.51224180	          3.48197044	         -7.32288596	          2.34261062	          0.93859433	          0.01009444	         -7.08408732	         -4.28854995	          0.89800451	        -29.84122460	          3.90469843	         38.57769698	         28.82846354	          1.42392946	         -4.85821420	        -13.32278996	          3.03988835	          0.03979202	         -2.28602843	         -5.30803809	          2.89777946	          0.16066105	          0.00999999	          0.02013082	          0.00999999	          0.11560211	          0.01621331	          0.07842624	          0.00999999	          0.18738312	          0.00999999	          0.00999999	          0.08485739	          0.06612085	          0.02226234	          0.04509611	          0.02847132	          0.00999999	          0.12185928	          0.08300908	          0.04427702	          0.04043891	          0.09997736	          0.01873460	          0.00999999	          0.20477822	          0.01000000	          0.01000000	          0.38334104	
